<svg xmlns="http://www.w3.org/2000/svg" width="98.737" height="94.296" viewBox="0 0 74.0527 70.7217">
    <path d="M58.055 69.223c-.31 0-.617-.098-.883-.285l-20.145-14.64-20.148 14.64c-.263.187-.57.285-.884.285-.31 0-.617-.098-.88-.285-.526-.383-.745-1.063-.546-1.68l7.696-23.684-20.15-14.64c-.522-.38-.745-1.06-.542-1.676.2-.617.778-1.035 1.426-1.035h24.906l7.696-23.688c.2-.617.773-1.035 1.425-1.035.65 0 1.223.418 1.426 1.035l7.695 23.688H71.05c.653 0 1.227.418 1.43 1.035.2.617-.02 1.297-.546 1.676l-20.15 14.64 7.7 23.684c.2.617-.023 1.297-.547 1.68-.26.187-.57.285-.882.285" fill="#FFB500"/>
    <path d="M37.027 0c-1.3 0-2.453.836-2.855 2.074l-7.36 22.65H3c-1.3 0-2.453.835-2.855 2.073-.4 1.234.04 2.59 1.093 3.35l19.266 13.998-7.36 22.652c-.402 1.234.04 2.59 1.09 3.35.524.384 1.145.576 1.762.576.62 0 1.238-.192 1.766-.575l19.265-13.996 19.266 13.996c.527.383 1.145.575 1.762.575.62 0 1.238-.192 1.765-.575 1.05-.76 1.49-2.117 1.09-3.35l-7.36-22.653 19.266-13.997c1.05-.76 1.493-2.117 1.09-3.35-.402-1.24-1.554-2.075-2.855-2.075H47.24l-7.36-22.65C39.48.837 38.33 0 37.03 0m0 3l8.03 24.723h25.993L50.024 43l8.032 24.723L37.027 52.44l-21.03 15.283L24.03 43 3 27.723h25.996L37.026 3" fill="#FFB31B"/>
</svg>
